<svg width="51" height="54" viewBox="0 0 51 54" fill="none" xmlns="http://www.w3.org/2000/svg">
<path d="M17.4161 36.1842C17.6832 36.1847 17.9422 36.0917 18.1479 35.9212L25.2378 30.0663L32.3162 35.9212C32.525 36.0942 32.7884 36.1874 33.0595 36.1842C33.2303 36.1848 33.3991 36.1471 33.5535 36.0739C33.7078 36.0006 33.8438 35.8938 33.9514 35.7611C34.0471 35.6448 34.1188 35.5108 34.1625 35.3668C34.2063 35.2227 34.2211 35.0715 34.2062 34.9217C34.1914 34.7719 34.1471 34.6265 34.0759 34.4938C34.0047 34.3612 33.908 34.2439 33.7914 34.1487L26.4042 28.0423V19.7632C26.4042 19.4599 26.2837 19.169 26.0692 18.9546C25.8548 18.7401 25.5639 18.6196 25.2606 18.6196C24.9574 18.6196 24.6665 18.7401 24.452 18.9546C24.2376 19.169 24.1171 19.4599 24.1171 19.7632V28.008L16.7185 34.1144C16.5208 34.2574 16.374 34.46 16.2996 34.6924C16.2252 34.9248 16.2271 35.1749 16.305 35.4062C16.3829 35.6375 16.5328 35.8377 16.7327 35.9777C16.9326 36.1177 17.1721 36.19 17.4161 36.1842Z" fill="#E8610C"/>
<path d="M3.04137 24.8058H3.29295C3.55729 24.8123 3.8157 24.7269 4.02419 24.5643C4.23269 24.4017 4.37838 24.1718 4.43648 23.9139C4.96554 21.4761 5.92595 19.1526 7.27242 17.0527L7.34103 16.9383C8.35012 15.3789 9.56136 13.96 10.9431 12.7187L10.7373 14.1253C10.6949 14.4255 10.7735 14.7303 10.9557 14.9726C11.138 15.2149 11.4091 15.375 11.7093 15.4175H11.8694C12.1469 15.4202 12.4159 15.3219 12.6263 15.141C12.8367 14.9601 12.9741 14.7088 13.0129 14.434L13.619 10.0772C13.6438 9.90947 13.6311 9.73833 13.5816 9.57615C13.5322 9.41397 13.4473 9.26482 13.3331 9.13949C13.227 9.01543 13.0956 8.91552 12.9476 8.84648C12.7997 8.77745 12.6387 8.74089 12.4755 8.73926L7.90136 8.9794C7.75119 8.98616 7.60382 9.02243 7.46767 9.08614C7.33152 9.14985 7.20925 9.23975 7.10784 9.35072C6.90304 9.57482 6.79565 9.8711 6.80929 10.1744C6.82294 10.4777 6.95651 10.7631 7.18061 10.9679C7.40471 11.1727 7.701 11.2801 8.00428 11.2665L9.28503 11.2093C7.77696 12.5798 6.45796 14.145 5.36273 15.8634C5.35896 15.8976 5.35896 15.9321 5.36273 15.9663C3.87598 18.2553 2.80016 20.7861 2.18373 23.445C2.11869 23.7391 2.17227 24.0469 2.33285 24.3017C2.49343 24.5565 2.74803 24.7376 3.04137 24.8058Z" fill="#E8610C"/>
<path d="M35.6548 9.88291C39.3467 11.9424 42.3406 15.0558 44.2542 18.8253C44.4486 19.2026 44.5972 19.5914 44.7688 19.9688L43.7053 19.3056C43.4384 19.1448 43.1186 19.0967 42.8162 19.1718C42.5138 19.2468 42.2536 19.4389 42.0929 19.7058C41.9322 19.9727 41.884 20.2925 41.9591 20.5949C42.0341 20.8973 42.2263 21.1574 42.4931 21.3182L46.2896 23.6853C46.4716 23.7981 46.6816 23.8575 46.8957 23.8568C47.0202 23.8611 47.1444 23.8417 47.2616 23.7996C47.5438 23.7128 47.7815 23.5202 47.9249 23.2622V23.1707V23.1135L49.5716 18.8482C49.6391 18.7061 49.6766 18.5516 49.6816 18.3943C49.6867 18.2371 49.6593 18.0805 49.6011 17.9344C49.5429 17.7882 49.4552 17.6556 49.3434 17.5449C49.2316 17.4342 49.0982 17.3478 48.9515 17.291C48.8048 17.2342 48.648 17.2083 48.4908 17.2149C48.3336 17.2215 48.1795 17.2604 48.038 17.3293C47.8966 17.3982 47.7709 17.4955 47.6688 17.6152C47.5667 17.7348 47.4904 17.8743 47.4446 18.0248L46.9415 19.3284C46.7242 18.8253 46.4955 18.3336 46.2553 17.8304C44.125 13.6594 40.8062 10.2133 36.7183 7.92747C36.5869 7.85239 36.442 7.80392 36.2919 7.78484C36.1418 7.76575 35.9893 7.77642 35.8433 7.81624C35.6973 7.85606 35.5606 7.92425 35.4409 8.01691C35.3213 8.10958 35.2211 8.2249 35.146 8.3563C35.0709 8.4877 35.0224 8.6326 35.0033 8.78273C34.9843 8.93286 34.9949 9.08528 35.0347 9.23128C35.0746 9.37729 35.1428 9.51402 35.2354 9.63368C35.3281 9.75333 35.4434 9.85356 35.5748 9.92865L35.6548 9.88291Z" fill="#E8610C"/>
<path d="M36.4894 46.6814C32.7769 49.0049 28.4304 50.1085 24.0592 49.8376C22.2998 49.7299 20.5601 49.4074 18.8791 48.877L19.9197 48.5339C20.2078 48.4369 20.4455 48.2294 20.5807 47.957C20.7158 47.6847 20.7371 47.3698 20.6401 47.0817C20.543 46.7935 20.3355 46.5558 20.0632 46.4207C19.7908 46.2856 19.4759 46.2642 19.1878 46.3612L14.9453 47.8021C14.7846 47.8551 14.6376 47.9431 14.515 48.0597C14.3924 48.1764 14.2972 48.3189 14.2363 48.4768C14.179 48.6331 14.1564 48.8 14.1702 48.9659C14.184 49.1318 14.2339 49.2927 14.3164 49.4373L16.6034 53.4168C16.7027 53.5934 16.8472 53.7405 17.022 53.843C17.1968 53.9455 17.3957 53.9997 17.5983 54C17.7934 53.9996 17.9855 53.9525 18.1586 53.8628C18.2906 53.789 18.4067 53.6898 18.5001 53.571C18.5935 53.4521 18.6624 53.3158 18.7028 53.1701C18.7432 53.0244 18.7543 52.8722 18.7355 52.7222C18.7167 52.5721 18.6683 52.4273 18.5932 52.2961L17.8156 50.9239C19.8035 51.5726 21.8681 51.9571 23.9563 52.0674C24.4023 52.0674 24.8483 52.0674 25.2942 52.0674C29.693 52.0701 34.0054 50.8465 37.7472 48.5339C37.9043 48.4691 38.0449 48.3701 38.1589 48.244C38.2729 48.118 38.3573 47.9682 38.4061 47.8055C38.4549 47.6427 38.4669 47.4711 38.441 47.3032C38.4152 47.1352 38.3523 46.9752 38.2568 46.8346C38.1614 46.694 38.0358 46.5765 37.8893 46.4906C37.7427 46.4046 37.5788 46.3524 37.4095 46.3377C37.2403 46.3231 37.0698 46.3463 36.9107 46.4057C36.7515 46.4652 36.6076 46.5594 36.4894 46.6814Z" fill="#E8610C"/>
<path d="M10.4173 36.7444C11.1601 36.055 11.6779 35.1578 11.9033 34.1697C12.1287 33.1817 12.0512 32.1487 11.6809 31.2054C11.3106 30.262 10.6647 29.4521 9.82736 28.8813C8.99002 28.3105 8.00012 28.0051 6.98671 28.0051C5.9733 28.0051 4.98339 28.3105 4.14605 28.8813C3.30871 29.4521 2.66278 30.262 2.29248 31.2054C1.92217 32.1487 1.84467 33.1817 2.07008 34.1697C2.29548 35.1578 2.81334 36.055 3.55613 36.7444C2.47565 37.3561 1.57703 38.2437 0.952174 39.3167C0.327314 40.3896 -0.00136241 41.6092 -0.000241282 42.8508V43.3425C-0.000241282 43.6458 0.120237 43.9367 0.33469 44.1511C0.549143 44.3656 0.840003 44.486 1.14329 44.486H12.9216C13.2249 44.486 13.5158 44.3656 13.7302 44.1511C13.9447 43.9367 14.0651 43.6458 14.0651 43.3425V42.8508C14.0536 41.6008 13.7096 40.3764 13.0686 39.3033C12.4275 38.2302 11.5125 37.347 10.4173 36.7444ZM6.98671 30.352C7.53177 30.352 8.0646 30.5137 8.5178 30.8165C8.97101 31.1193 9.32424 31.5497 9.53283 32.0533C9.74142 32.5569 9.79599 33.111 9.68965 33.6456C9.58332 34.1802 9.32084 34.6712 8.93542 35.0567C8.55 35.4421 8.05895 35.7046 7.52436 35.8109C6.98977 35.9172 6.43565 35.8627 5.93207 35.6541C5.4285 35.4455 4.99808 35.0922 4.69526 34.639C4.39244 34.1858 4.23081 33.653 4.23081 33.1079C4.23075 32.3829 4.51639 31.6871 5.02583 31.1713C5.53526 30.6554 6.22745 30.3611 6.9524 30.352H6.98671ZM2.29825 42.2447C2.44756 41.1023 3.00735 40.0533 3.87318 39.2933C4.73902 38.5332 5.85177 38.1141 7.00386 38.1141C8.15595 38.1141 9.26871 38.5332 10.1345 39.2933C11.0004 40.0533 11.5602 41.1023 11.7095 42.2447H2.29825Z" fill="#E8610C"/>
<path d="M19.3371 16.5381H31.1155C31.4187 16.5381 31.7096 16.4176 31.9241 16.2032C32.1385 15.9887 32.259 15.6978 32.259 15.3946V14.8914C32.2613 13.638 31.9286 12.4067 31.2953 11.3251C30.6619 10.2434 29.7511 9.35066 28.6569 8.73923C29.3997 8.04984 29.9175 7.15264 30.1429 6.16462C30.3683 5.17659 30.2908 4.14357 29.9205 3.20024C29.5502 2.2569 28.9043 1.44702 28.0669 0.876173C27.2296 0.305326 26.2397 0 25.2263 0C24.2129 0 23.223 0.305326 22.3856 0.876173C21.5483 1.44702 20.9024 2.2569 20.5321 3.20024C20.1618 4.14357 20.0843 5.17659 20.3097 6.16462C20.5351 7.15264 21.0529 8.04984 21.7957 8.73923C20.7031 9.35251 19.7935 10.2457 19.1605 11.3269C18.5274 12.4081 18.1937 13.6385 18.1936 14.8914V15.3946C18.1936 15.6978 18.3141 15.9887 18.5285 16.2032C18.743 16.4176 19.0338 16.5381 19.3371 16.5381ZM25.1691 2.35836C25.7152 2.35609 26.2495 2.51609 26.7045 2.81804C27.1595 3.11999 27.5145 3.55029 27.7245 4.05432C27.9345 4.55836 27.99 5.11343 27.884 5.64908C27.7781 6.18474 27.5154 6.67684 27.1292 7.06295C26.7431 7.44905 26.251 7.71176 25.7154 7.81773C25.1797 7.9237 24.6247 7.86816 24.1206 7.65816C23.6166 7.44816 23.1863 7.09316 22.8843 6.6382C22.5824 6.18325 22.4224 5.64885 22.4247 5.10282C22.4277 4.37389 22.7194 3.67585 23.2359 3.16149C23.7524 2.64713 24.4516 2.35835 25.1806 2.35836H25.1691ZM25.2263 10.1458C26.3742 10.1484 27.4827 10.565 28.3481 11.3191C29.2136 12.0732 29.778 13.1143 29.9376 14.251H20.5378C20.6972 13.1162 21.2599 12.0767 22.123 11.3229C22.9861 10.569 24.0918 10.1511 25.2377 10.1458H25.2263Z" fill="#E8610C"/>
<path d="M46.5184 36.7444C47.2612 36.055 47.779 35.1578 48.0044 34.1697C48.2298 33.1817 48.1523 32.1487 47.782 31.2054C47.4117 30.262 46.7658 29.4521 45.9284 28.8813C45.0911 28.3105 44.1012 28.0051 43.0878 28.0051C42.0744 28.0051 41.0845 28.3105 40.2471 28.8813C39.4098 29.4521 38.7639 30.262 38.3936 31.2054C38.0232 32.1487 37.9457 33.1817 38.1711 34.1697C38.3966 35.1578 38.9144 36.055 39.6572 36.7444C38.5783 37.3579 37.681 38.246 37.0564 39.3185C36.4317 40.391 36.1021 41.6097 36.1008 42.8508V43.3425C36.1008 43.6458 36.2213 43.9367 36.4358 44.1511C36.6502 44.3656 36.9411 44.486 37.2444 44.486H49.0227C49.326 44.486 49.6168 44.3656 49.8313 44.1511C50.0457 43.9367 50.1662 43.6458 50.1662 43.3425V42.8508C50.1535 41.6011 49.809 40.3772 49.1681 39.3043C48.5272 38.2313 47.6127 37.3479 46.5184 36.7444ZM43.0878 30.352C43.6328 30.352 44.1657 30.5137 44.6189 30.8165C45.0721 31.1193 45.4253 31.5497 45.6339 32.0533C45.8425 32.5569 45.8971 33.111 45.7907 33.6456C45.6844 34.1802 45.4219 34.6712 45.0365 35.0567C44.6511 35.4421 44.16 35.7046 43.6254 35.8109C43.0908 35.9172 42.5367 35.8627 42.0331 35.6541C41.5296 35.4455 41.0992 35.0922 40.7963 34.639C40.4935 34.1858 40.3319 33.653 40.3319 33.1079C40.3318 32.3849 40.6158 31.6908 41.1228 31.1752C41.6298 30.6597 42.3191 30.364 43.042 30.352H43.0878ZM38.3993 42.2447C38.5486 41.1023 39.1084 40.0533 39.9743 39.2933C40.8401 38.5332 41.9528 38.1141 43.1049 38.1141C44.257 38.1141 45.3698 38.5332 46.2356 39.2933C47.1014 40.0533 47.6612 41.1023 47.8105 42.2447H38.3993Z" fill="#E8610C"/>
</svg>
