<svg width="23" height="22" viewBox="0 0 23 22" fill="none" xmlns="http://www.w3.org/2000/svg">
<path d="M21.4834 17.659C21.4834 15.6974 19.8704 14.1074 17.8805 14.1074C17.6138 14.1074 17.3548 14.1361 17.1049 14.1901L14.7171 11.8358L21.197 5.44776C22.3193 4.34141 22.3193 2.54728 21.197 1.44089C20.6362 0.887679 19.9006 0.610916 19.165 0.610916C18.4294 0.610916 17.6938 0.887679 17.1323 1.44089L10.6517 7.82898L3.27121 0.553172C2.89711 0.184391 2.40648 0 1.91652 0C1.42589 0 0.93526 0.184391 0.561156 0.553172C-0.187052 1.29078 -0.187052 2.48675 0.561156 3.22466L7.9423 10.5001L0.960551 17.3822V21.3891H5.02592L12.007 14.5073L14.3738 16.8404C14.3107 17.1034 14.277 17.3773 14.277 17.6589C14.277 21.6814 20.2943 22 22.2843 22C24.2741 22 21.4834 19.6205 21.4834 17.659ZM19.165 1.55541C19.6767 1.55541 20.1575 1.75193 20.5197 2.10858C21.2665 2.84512 21.2665 4.04353 20.5197 4.78007L19.8423 5.44776L17.1323 2.77631L17.8096 2.10858C18.1718 1.75193 18.6526 1.55541 19.165 1.55541ZM1.23852 2.55663C0.865138 2.18851 0.865138 1.58933 1.23852 1.22086C1.4196 1.04271 1.66038 0.944448 1.91657 0.944448C2.17208 0.944448 2.41281 1.04271 2.59393 1.22086L9.9744 8.49667L8.61976 9.83244L1.23852 2.55663ZM1.91935 20.4446V19.6624L2.71252 20.4446H1.91935ZM4.62869 20.4446H4.06789L1.91935 18.3267V17.7735L16.455 3.44435L17.4741 4.44902L4.35143 17.385C4.16402 17.5694 4.16402 17.8686 4.35143 18.053C4.53812 18.2374 4.84206 18.2374 5.02875 18.053L18.1515 5.1167L19.165 6.11549L4.62869 20.4446ZM12.6844 13.8396L14.039 12.5039L16.123 14.5578C15.5558 14.8709 15.0834 15.33 14.7585 15.8842L12.6844 13.8396ZM17.8405 20.4429C17.0073 20.1661 16.3651 19.8056 15.9313 19.3715C15.4632 18.903 15.2358 18.3429 15.2358 17.659C15.2358 16.9626 15.5102 16.308 16.0099 15.8154C16.5097 15.3231 17.1737 15.0519 17.8805 15.0519C19.3391 15.0519 20.5253 16.2215 20.5253 17.659C20.5253 18.7342 21.1065 19.7828 21.574 20.6252C21.6435 20.7512 21.7277 20.9027 21.8049 21.0494C20.7731 21.0227 19.2106 20.8982 17.8405 20.4429Z" fill="#F77D0C"/>
</svg>
