<svg width="16" height="16" viewBox="0 0 16 16" fill="none" xmlns="http://www.w3.org/2000/svg">
<path d="M15.9982 3.41321C15.997 3.40429 15.9953 3.39545 15.9932 3.38672C15.9926 3.38373 15.9919 3.38078 15.991 3.37789C15.991 3.37138 15.9874 3.36487 15.9851 3.35837L15.9819 3.34954C15.9792 3.34257 15.9761 3.33606 15.9729 3.32955C15.9721 3.32725 15.9711 3.32507 15.9697 3.32305C15.9654 3.31438 15.9606 3.306 15.9553 3.29795L15.9526 3.29423L15.9372 3.27471L15.9323 3.26914C15.9273 3.26356 15.9219 3.25798 15.9164 3.25287L15.911 3.24823C15.9045 3.24214 15.8976 3.23655 15.8903 3.23149C15.8821 3.22594 15.8736 3.22082 15.865 3.21616L15.8568 3.21244L15.8424 3.20547L8.09078 0.0188043C8.03021 -0.0062681 7.96256 -0.0062681 7.90199 0.0188043L5.58731 0.969646L3.27263 1.92049H3.26992L0.15356 3.19989L0.136849 3.20779L0.131429 3.21058C0.122547 3.21514 0.11395 3.22026 0.105686 3.22592C0.098379 3.23097 0.0914358 3.23657 0.08491 3.24265L0.0794901 3.2473C0.0740703 3.25241 0.0686507 3.25798 0.0636826 3.26356L0.0587144 3.26914L0.0433587 3.28866L0.0406485 3.29237C0.0353338 3.30043 0.0305071 3.30881 0.0261959 3.31747C0.0248749 3.31949 0.0238123 3.32168 0.0230344 3.32398C0.0198729 3.33048 0.0167115 3.33699 0.0140016 3.34396L0.0108401 3.35279C0.0108401 3.3593 0.00677508 3.3658 0.0049685 3.37231C0.00481743 3.37525 0.00481743 3.3782 0.0049685 3.38114C0.0028778 3.38988 0.0012196 3.39872 3.67739e-07 3.40763C3.67739e-07 3.41785 3.67739e-07 3.42808 3.67739e-07 3.4383V12.3077C-8.43294e-05 12.359 0.0144632 12.4092 0.0418398 12.4521C0.0692163 12.495 0.108218 12.5286 0.154012 12.5489L7.9029 15.9814C7.91183 15.9855 7.92103 15.9889 7.93045 15.9916H7.93406C7.94354 15.994 7.95303 15.9963 7.96251 15.9977H7.97064C7.98158 15.9991 7.99259 15.9999 8.00361 16C8.01449 15.9999 8.02535 15.9991 8.03613 15.9977H8.04471C8.05387 15.9963 8.06293 15.9943 8.07181 15.9916H8.07768C8.0868 15.9889 8.09571 15.9855 8.10433 15.9814L15.846 12.5489C15.8918 12.5286 15.9308 12.495 15.9582 12.4521C15.9855 12.4092 16.0001 12.359 16 12.3077V3.44388C16 3.43365 15.9991 3.42343 15.9982 3.41321ZM7.99639 0.544881L15.0574 3.44713L12.8936 4.33616L6.32259 1.23268L7.99639 0.544881ZM10.9045 5.28514L4.0219 2.17748L5.66815 1.5013L12.6312 4.78788V7.51307L11.0567 8.17299V5.52402C11.0564 5.47341 11.0418 5.42399 11.0148 5.38169C10.9878 5.3394 10.9495 5.30603 10.9045 5.28561V5.28514ZM7.99639 6.34613L0.935359 3.44713L3.35753 2.45214L10.1047 5.49892L7.99639 6.34613ZM0.502682 3.83239L7.74121 6.80668V15.3443L0.502682 12.1376V3.83239ZM15.4901 12.1376L8.25112 15.3443V6.80761L10.5473 5.88232V8.5629C10.5472 8.60591 10.5575 8.64828 10.5771 8.68626C10.5967 8.72425 10.6251 8.75668 10.6598 8.78069C10.6945 8.80471 10.7343 8.81958 10.7759 8.82399C10.8175 8.82839 10.8595 8.8222 10.8982 8.80595L12.983 7.93226C13.0299 7.91256 13.0701 7.87892 13.0983 7.83562C13.1266 7.79233 13.1416 7.74135 13.1415 7.6892V4.79718L15.4901 3.83239V12.1376Z" fill="black"/>
</svg>
