<svg width="16" height="14" viewBox="0 0 16 14" fill="none" xmlns="http://www.w3.org/2000/svg">
<mask id="path-1-inside-1" fill="white">
<path d="M11.5778 3.43009e-06C11.4066 -0.000212457 11.2357 0.00976271 11.0658 0.0298742C9.25607 0.246831 8.40163 1.23414 8.00001 2.0831C7.59679 1.23414 6.74395 0.246831 4.93267 0.0314464C4.78821 0.0141497 4.64295 0.00417952 4.49745 0.00157554H4.42224C-0.040366 0.00157554 -4.08376 6.86716 7.96161 13.9843C7.97313 13.9921 7.98622 13.9975 8.00001 14C8.01101 13.9912 8.02434 13.9858 8.03841 13.9843C20.0822 6.86558 16.042 0.00157558 11.5778 3.43009e-06ZM8.00001 13.085C5.09907 11.3242 3.03978 9.4895 1.85572 7.62021C0.895678 6.11252 0.585263 4.64728 0.94208 3.38484C1.15548 2.63866 1.61072 1.98122 2.23877 1.51223C2.86682 1.04325 3.6334 0.788306 4.42224 0.786078H4.47985C4.59754 0.78857 4.71504 0.796965 4.83186 0.811233C6.01272 0.952726 6.83195 1.49197 7.27038 2.41483L8.00001 3.94453L8.72484 2.41483C9.16166 1.49197 9.9825 0.952726 11.1634 0.811233C11.3014 0.794632 11.4403 0.786232 11.5794 0.786078C12.3692 0.789227 13.1364 1.04569 13.7642 1.51647C14.3921 1.98725 14.8464 2.6466 15.0579 3.39428C15.4148 4.652 15.0979 6.12038 14.1427 7.62965C12.9602 9.4895 10.8993 11.3242 8.00001 13.085Z"/>
</mask>
<path d="M11.5778 3.43009e-06C11.4066 -0.000212457 11.2357 0.00976271 11.0658 0.0298742C9.25607 0.246831 8.40163 1.23414 8.00001 2.0831C7.59679 1.23414 6.74395 0.246831 4.93267 0.0314464C4.78821 0.0141497 4.64295 0.00417952 4.49745 0.00157554H4.42224C-0.040366 0.00157554 -4.08376 6.86716 7.96161 13.9843C7.97313 13.9921 7.98622 13.9975 8.00001 14C8.01101 13.9912 8.02434 13.9858 8.03841 13.9843C20.0822 6.86558 16.042 0.00157558 11.5778 3.43009e-06ZM8.00001 13.085C5.09907 11.3242 3.03978 9.4895 1.85572 7.62021C0.895678 6.11252 0.585263 4.64728 0.94208 3.38484C1.15548 2.63866 1.61072 1.98122 2.23877 1.51223C2.86682 1.04325 3.6334 0.788306 4.42224 0.786078H4.47985C4.59754 0.78857 4.71504 0.796965 4.83186 0.811233C6.01272 0.952726 6.83195 1.49197 7.27038 2.41483L8.00001 3.94453L8.72484 2.41483C9.16166 1.49197 9.9825 0.952726 11.1634 0.811233C11.3014 0.794632 11.4403 0.786232 11.5794 0.786078C12.3692 0.789227 13.1364 1.04569 13.7642 1.51647C14.3921 1.98725 14.8464 2.6466 15.0579 3.39428C15.4148 4.652 15.0979 6.12038 14.1427 7.62965C12.9602 9.4895 10.8993 11.3242 8.00001 13.085Z" fill="black"/>
<path d="M11.5778 3.43009e-06L11.5753 2L11.5771 2L11.5778 3.43009e-06ZM11.0658 0.0298742L10.8307 -1.95626L10.8277 -1.95591L11.0658 0.0298742ZM8.00001 2.0831L6.19342 2.94115L8.0036 6.75241L9.80791 2.93837L8.00001 2.0831ZM4.93267 0.0314464L4.69489 2.01726L4.69651 2.01745L4.93267 0.0314464ZM4.49745 0.00157554L4.53323 -1.9981L4.51534 -1.99842H4.49745V0.00157554ZM7.96161 13.9843L9.08729 12.3311L9.03425 12.295L8.979 12.2624L7.96161 13.9843ZM8.00001 14L7.64114 15.9675L8.53531 16.1306L9.24622 15.5643L8.00001 14ZM8.03841 13.9843L8.25082 15.973L8.68241 15.9269L9.05607 15.706L8.03841 13.9843ZM8.00001 13.085L6.96226 14.7947L8.0003 15.4248L9.03818 14.7945L8.00001 13.085ZM1.85572 7.62021L3.54529 6.54999L3.54274 6.54598L1.85572 7.62021ZM0.94208 3.38484L-0.98084 2.83492L-0.982523 2.84087L0.94208 3.38484ZM4.42224 0.786078V-1.21393L4.41659 -1.21391L4.42224 0.786078ZM4.47985 0.786078L4.52217 -1.21347L4.50101 -1.21392H4.47985V0.786078ZM4.83186 0.811233L4.58942 2.79649L4.59392 2.79703L4.83186 0.811233ZM7.27038 2.41483L5.46387 3.27305L5.46521 3.27585L7.27038 2.41483ZM8.00001 3.94453L6.19484 4.80555L8.00597 8.60265L9.80738 4.80093L8.00001 3.94453ZM8.72484 2.41483L10.5322 3.27123L10.5326 3.27049L8.72484 2.41483ZM11.1634 0.811233L11.4013 2.79703L11.4022 2.79692L11.1634 0.811233ZM11.5794 0.786078L11.5873 -1.21393L11.5772 -1.21392L11.5794 0.786078ZM15.0579 3.39428L13.1335 3.93882L13.1339 3.94014L15.0579 3.39428ZM14.1427 7.62965L15.8305 8.7027L15.8327 8.69925L14.1427 7.62965ZM11.5803 -1.99999C11.3298 -2.00031 11.0794 -1.98571 10.8307 -1.95626L11.3009 2.01601C11.3919 2.00523 11.4835 1.99989 11.5753 2L11.5803 -1.99999ZM10.8277 -1.95591C8.23103 -1.6446 6.84 -0.14171 6.1921 1.22784L9.80791 2.93837C9.90271 2.73799 10.0365 2.55039 10.2306 2.39985C10.4148 2.25698 10.7337 2.08401 11.3038 2.01565L10.8277 -1.95591ZM9.8066 1.22505C9.15786 -0.140826 7.76957 -1.6453 5.16883 -1.95456L4.69651 2.01745C5.26711 2.08531 5.58537 2.25799 5.76901 2.40035C5.96269 2.55049 6.0971 2.73833 6.19342 2.94115L9.8066 1.22505ZM5.17044 -1.95437C4.95892 -1.9797 4.74624 -1.99429 4.53323 -1.9981L4.46166 2.00126C4.53965 2.00265 4.6175 2.008 4.69489 2.01726L5.17044 -1.95437ZM4.49745 -1.99842H4.42224V2.00158H4.49745V-1.99842ZM4.42224 -1.99842C1.21215 -1.99842 -1.90623 0.480353 -1.99798 4.27567C-2.08777 7.98953 0.718643 12.0277 6.94421 15.7062L8.979 12.2624C3.15921 8.8237 1.96463 5.87055 2.00085 4.37234C2.0351 2.95559 3.16973 2.00158 4.42224 2.00158V-1.99842ZM6.83593 15.6374C7.07953 15.8033 7.35407 15.9152 7.64114 15.9675L8.35888 12.0325C8.61837 12.0798 8.86673 12.181 9.08729 12.3311L6.83593 15.6374ZM9.24622 15.5643C8.9578 15.7941 8.61194 15.9344 8.25082 15.973L7.82601 11.9956C7.43674 12.0372 7.06421 12.1884 6.7538 12.4357L9.24622 15.5643ZM9.05607 15.706C15.2807 12.0268 18.0872 7.98876 17.998 4.27519C17.9068 0.479465 14.7886 -1.99887 11.5785 -2L11.5771 2C12.8311 2.00044 13.9651 2.9549 13.9992 4.37125C14.0352 5.86975 12.8399 8.82303 7.02075 12.2625L9.05607 15.706ZM9.03776 11.3753C6.27468 9.69818 4.50035 8.05777 3.54529 6.55L0.166155 8.69043C1.5792 10.9212 3.92347 12.9502 6.96226 14.7947L9.03776 11.3753ZM3.54274 6.54598C2.77825 5.34539 2.7133 4.47149 2.86668 3.92881L-0.982523 2.84087C-1.54277 4.82307 -0.986891 6.87965 0.168706 8.69445L3.54274 6.54598ZM2.86499 3.93476C2.95673 3.61399 3.15435 3.32463 3.43542 3.11474L1.04212 -0.0902727C0.0670987 0.637812 -0.645776 1.66333 -0.980831 2.83492L2.86499 3.93476ZM3.43542 3.11474C3.71706 2.90443 4.06546 2.78709 4.42789 2.78607L4.41659 -1.21391C3.20134 -1.21048 2.01658 -0.817934 1.04212 -0.0902727L3.43542 3.11474ZM4.42224 2.78608H4.47985V-1.21392H4.42224V2.78608ZM4.43752 2.78563C4.48833 2.78671 4.53903 2.79033 4.58942 2.79648L5.07431 -1.17402C4.89104 -1.1964 4.70676 -1.20957 4.52217 -1.21347L4.43752 2.78563ZM4.59392 2.79703C5.22306 2.87241 5.37221 3.0801 5.46387 3.27304L9.07688 1.55661C8.2917 -0.0961545 6.80238 -0.966961 5.06981 -1.17456L4.59392 2.79703ZM5.46521 3.27585L6.19484 4.80555L9.80518 3.0835L9.07554 1.5538L5.46521 3.27585ZM9.80738 4.80093L10.5322 3.27123L6.91748 1.55842L6.19264 3.08813L9.80738 4.80093ZM10.5326 3.27049C10.6221 3.08137 10.7701 2.87266 11.4013 2.79703L10.9254 -1.17456C9.19492 -0.96721 7.70125 -0.0974193 6.91713 1.55917L10.5326 3.27049ZM11.4022 2.79692C11.4617 2.78977 11.5216 2.78614 11.5816 2.78608L11.5772 -1.21392C11.359 -1.21368 11.1411 -1.2005 10.9245 -1.17446L11.4022 2.79692ZM11.5714 2.78606C11.9343 2.78751 12.2829 2.90554 12.5645 3.11663L14.964 -0.0836927C13.9898 -0.814165 12.8041 -1.20906 11.5873 -1.21391L11.5714 2.78606ZM12.5645 3.11663C12.8454 3.32729 13.0426 3.61744 13.1335 3.93882L16.9824 2.84973C16.6502 1.67575 15.9388 0.647207 14.964 -0.0836927L12.5645 3.11663ZM13.1339 3.94014C13.2848 4.47222 13.2194 5.34867 12.4527 6.56004L15.8327 8.69925C16.9764 6.8921 17.5447 4.83177 16.982 2.84842L13.1339 3.94014ZM12.4549 6.5566C11.5012 8.05663 9.72427 9.6979 6.96184 11.3756L9.03818 14.7945C12.0744 12.9505 14.4192 10.9224 15.8305 8.7027L12.4549 6.5566Z" fill="black" mask="url(#path-1-inside-1)"/>
</svg>
