<svg width="42" height="24" viewBox="0 0 42 24" fill="none" xmlns="http://www.w3.org/2000/svg">
<path d="M28.2857 6.85714L32.1429 12H25.7143V6.85714H28.2857ZM41.1429 12V20.5714H37.6279C37.2307 22.5275 35.502 24 33.4286 24C31.3553 24 29.6265 22.5275 29.2293 20.5714H24H11.9136C11.5164 22.5275 9.78767 24 7.71429 24C5.64101 24 3.91218 22.5275 3.515 20.5714H0V0H24V3.42857H30.8571L36.0006 10.2857L41.1429 12ZM4.30507 17.1429H1.71429V18.8571H3.515C3.64443 18.2196 3.92683 17.6433 4.30507 17.1429ZM10.2857 19.7143C10.2857 18.2964 9.13215 17.1429 7.71429 17.1429C6.29642 17.1429 5.14286 18.2964 5.14286 19.7143C5.14286 21.1322 6.29642 22.2857 7.71429 22.2857C9.13215 22.2857 10.2857 21.1322 10.2857 19.7143ZM22.2857 17.1432L11.1236 17.143C11.5018 17.6434 11.7841 18.2196 11.9136 18.8571H22.2857V17.1432ZM22.2857 1.71429H1.71429V15.4286L7.71334 15.4287C7.71366 15.4287 7.71397 15.4286 7.71397 15.4286C7.71397 15.4286 7.71491 15.4287 7.71523 15.4287L22.2857 15.4289V1.71429ZM36 19.7143C36 18.2964 34.8464 17.1429 33.4286 17.1429C32.0107 17.1429 30.8571 18.2964 30.8571 19.7143C30.8571 21.1322 32.0107 22.2857 33.4286 22.2857C34.8464 22.2857 36 21.1322 36 19.7143ZM39.4286 13.2355L35.4585 11.912L34.9505 11.7427L34.6293 11.3143L30 5.14286H24.0004L24 18.8571H29.2293C29.6265 16.9009 31.3553 15.4286 33.4286 15.4286C35.502 15.4286 37.2307 16.9009 37.6279 18.8571H39.4286V13.2355Z" fill="black"/>
</svg>
