<svg width="40" height="40" viewBox="0 0 40 40" fill="none" xmlns="http://www.w3.org/2000/svg">
<circle cx="20" cy="20" r="19.5" stroke="white" stroke-opacity="0.2"/>
<path d="M19.9999 12.1296C22.5632 12.1296 22.8668 12.1394 23.8791 12.1856C24.8151 12.2283 25.3234 12.3847 25.6617 12.5161C26.1098 12.6903 26.4296 12.8983 26.7655 13.2342C27.1015 13.5702 27.3095 13.89 27.4837 14.3381C27.6151 14.6764 27.7715 15.1847 27.8142 16.1207C27.8604 17.1329 27.8702 17.4366 27.8702 19.9998C27.8702 22.5632 27.8604 22.8668 27.8142 23.8791C27.7715 24.8151 27.6151 25.3234 27.4837 25.6617C27.3095 26.1098 27.1015 26.4296 26.7656 26.7655C26.4296 27.1014 26.1098 27.3094 25.6617 27.4836C25.3234 27.6151 24.8151 27.7715 23.8791 27.8141C22.867 27.8603 22.5634 27.8701 19.9999 27.8701C17.4364 27.8701 17.1328 27.8603 16.1207 27.8141C15.1847 27.7715 14.6764 27.6151 14.3381 27.4836C13.89 27.3094 13.5702 27.1014 13.2343 26.7655C12.8984 26.4296 12.6903 26.1098 12.5162 25.6617C12.3847 25.3234 12.2283 24.8151 12.1856 23.8791C12.1394 22.8668 12.1296 22.5632 12.1296 19.9998C12.1296 17.4366 12.1394 17.1329 12.1856 16.1207C12.2283 15.1847 12.3847 14.6764 12.5162 14.3381C12.6903 13.89 12.8983 13.5702 13.2343 13.2343C13.5702 12.8983 13.89 12.6903 14.3381 12.5161C14.6764 12.3847 15.1847 12.2283 16.1207 12.1856C17.133 12.1394 17.4366 12.1296 19.9999 12.1296ZM19.9999 10.3999C17.3927 10.3999 17.0658 10.411 16.0418 10.4577C15.02 10.5043 14.3222 10.6666 13.7115 10.9039C13.0803 11.1492 12.5449 11.4775 12.0112 12.0111C11.4775 12.5449 11.1492 13.0802 10.9039 13.7115C10.6666 14.3222 10.5043 15.02 10.4577 16.0418C10.411 17.0658 10.3999 17.3927 10.3999 19.9998C10.3999 22.6071 10.411 22.934 10.4577 23.9579C10.5043 24.9797 10.6666 25.6776 10.9039 26.2882C11.1492 26.9195 11.4775 27.4549 12.0112 27.9886C12.5449 28.5223 13.0803 28.8505 13.7115 29.0958C14.3222 29.3332 15.02 29.4955 16.0418 29.5421C17.0658 29.5888 17.3927 29.5998 19.9999 29.5998C22.6071 29.5998 22.934 29.5888 23.958 29.5421C24.9798 29.4955 25.6776 29.3332 26.2883 29.0958C26.9195 28.8505 27.4549 28.5223 27.9886 27.9886C28.5223 27.4549 28.8506 26.9195 29.0959 26.2882C29.3332 25.6776 29.4955 24.9797 29.5421 23.9579C29.5889 22.934 29.5999 22.6071 29.5999 19.9998C29.5999 17.3927 29.5889 17.0658 29.5421 16.0418C29.4955 15.02 29.3332 14.3222 29.0959 13.7115C28.8506 13.0802 28.5223 12.5449 27.9886 12.0111C27.4549 11.4775 26.9195 11.1492 26.2883 10.9039C25.6776 10.6666 24.9798 10.5043 23.958 10.4577C22.934 10.411 22.6071 10.3999 19.9999 10.3999Z" fill="white"/>
<path d="M20.0045 15.0747C17.2818 15.0747 15.0747 17.2818 15.0747 20.0044C15.0747 22.727 17.2818 24.9341 20.0045 24.9341C22.7271 24.9341 24.9342 22.727 24.9342 20.0044C24.9342 17.2818 22.7271 15.0747 20.0045 15.0747ZM20.0045 23.2044C18.2371 23.2044 16.8044 21.7717 16.8044 20.0044C16.8044 18.2371 18.2371 16.8044 20.0045 16.8044C21.7718 16.8044 23.2044 18.2371 23.2044 20.0044C23.2044 21.7717 21.7718 23.2044 20.0045 23.2044Z" fill="white"/>
<path d="M26.2806 14.8771C26.2806 15.5133 25.7648 16.0291 25.1285 16.0291C24.4923 16.0291 23.9766 15.5133 23.9766 14.8771C23.9766 14.2409 24.4923 13.7251 25.1285 13.7251C25.7648 13.7251 26.2806 14.2409 26.2806 14.8771Z" fill="white"/>
</svg>
