<svg width="40" height="40" viewBox="0 0 40 40" fill="none" xmlns="http://www.w3.org/2000/svg">
<path d="M39.5 20C39.5 30.7696 30.7696 39.5 20 39.5C9.23045 39.5 0.5 30.7696 0.5 20C0.5 9.23045 9.23045 0.5 20 0.5C30.7696 0.5 39.5 9.23045 39.5 20Z" stroke="white" stroke-opacity="0.2"/>
<path fill-rule="evenodd" clip-rule="evenodd" d="M11.2426 19.8309C15.9069 17.7988 19.0172 16.459 20.5734 15.8117C25.0168 13.9636 25.9401 13.6426 26.5419 13.6319C26.6743 13.6296 26.9702 13.6624 27.1619 13.818C27.3238 13.9493 27.3683 14.1267 27.3896 14.2513C27.4109 14.3758 27.4375 14.6595 27.4164 14.8811C27.1756 17.4111 26.1337 23.5507 25.6036 26.3843C25.3794 27.5833 24.9377 27.9853 24.5102 28.0247C23.581 28.1102 22.8755 27.4106 21.9756 26.8207C20.5674 25.8976 19.7718 25.323 18.4049 24.4222C16.8252 23.3812 17.8493 22.8091 18.7495 21.874C18.9851 21.6293 23.079 17.9056 23.1582 17.5678C23.1681 17.5256 23.1773 17.3681 23.0838 17.285C22.9902 17.2018 22.8521 17.2302 22.7525 17.2529C22.6113 17.2849 20.3616 18.7718 16.0036 21.7136C15.3651 22.1521 14.7867 22.3657 14.2685 22.3545C13.6972 22.3422 12.5983 22.0315 11.7813 21.766C10.7793 21.4403 9.98296 21.2681 10.0523 20.7149C10.0884 20.4268 10.4852 20.1321 11.2426 19.8309Z" fill="white"/>
</svg>
