<svg width="40" height="40" viewBox="0 0 40 40" fill="none" xmlns="http://www.w3.org/2000/svg">
<circle cx="20" cy="20" r="19.5" stroke="white" stroke-opacity="0.2"/>
<path fill-rule="evenodd" clip-rule="evenodd" d="M13.103 15.2002H11.0901C10.5149 15.2002 10.3999 15.4777 10.3999 15.7837C10.3999 16.3302 11.0823 19.0405 13.5775 22.6251C15.2409 25.0732 17.5845 26.4002 19.7171 26.4002C20.9966 26.4002 21.1549 26.1055 21.1549 25.5978V23.7476C21.1549 23.1581 21.2761 23.0404 21.6813 23.0404C21.9799 23.0404 22.4917 23.1935 23.686 24.3738C25.0508 25.7726 25.2758 26.4002 26.0435 26.4002H28.0565C28.6316 26.4002 28.9192 26.1055 28.7533 25.5238C28.5718 24.9441 27.9201 24.103 27.0555 23.106C26.5863 22.5377 25.8825 21.9257 25.6692 21.6197C25.3707 21.2263 25.456 21.0514 25.6692 20.7017C25.6692 20.7017 28.1217 17.1607 28.3777 15.9586C28.5056 15.5214 28.3777 15.2002 27.7689 15.2002H25.756C25.2442 15.2002 25.0082 15.4777 24.8802 15.7837C24.8802 15.7837 23.8566 18.341 22.4064 20.0022C21.9372 20.4831 21.7239 20.6361 21.468 20.6361C21.3401 20.6361 21.1549 20.4831 21.1549 20.046V15.9586C21.1549 15.434 21.0063 15.2002 20.5798 15.2002H17.4165C17.0967 15.2002 16.9043 15.4436 16.9043 15.6744C16.9043 16.1717 17.6294 16.2864 17.7041 17.6853V20.7236C17.7041 21.3897 17.5867 21.5105 17.3308 21.5105C16.6484 21.5105 14.9885 18.9416 14.0039 16.0023C13.811 15.431 13.6175 15.2002 13.103 15.2002Z" fill="white"/>
</svg>
